# xmcd CD database file
# Copyright (C) 1993-1998 Ti Kan
#
# Track frame offsets:
#  200
#  12690
#  34635
#  49205
#  65477
#  78792
#  97872
#  113685
#  128420
#  150300
#  160252
#  173785
#
# Disc length: 2528 seconds
#
# Revision: 1
# Processed by: cddbd v1.4b41PL1 Copyright (c) Steve Scherf et al.
# Submitted via: KiC 2.1 - (C) 1996-1998 Alwin Hoogerdijk
#
DISCID=8409de0c
DTITLE=Al Copley and Hal Singer - Royal Blue
DYEAR=1900
DGENRE=
TTITLE0=Boogie Woogie On MTK
TTITLE1=Standing By The Highway
TTITLE2=Sittin' In The Barber's Chair
TTITLE3=Please Don't Leave Me, Baby
TTITLE4=Elegie
TTITLE5=That's Hal
TTITLE6=Tater Diggin'
TTITLE7=Morning, Noon, And Night
TTITLE8=Wake Up Dead
TTITLE9=My Bonnie Rocks
TTITLE10=Glass Boogie
TTITLE11=Royal Blue
EXTD=
EXTT0=
EXTT1=
EXTT2=
EXTT3=
EXTT4=
EXTT5=
EXTT6=
EXTT7=
EXTT8=
EXTT9=
EXTT10=
EXTT11=
PLAYORDER=
